/* XPM */
static const char *start_bmp_0[] = {
"20 20 3 1 0 0",
"  c #000000",
"! c None",
"# c #FFFFFF",
"!!!!!!!!!!!!!!!!!!!!",
"!!!!!!!!!!!!!!!!!!!!",
"!!!!!!!!!!!!!!!!!!!!",
"!!!!!!!!!!!!!!!!!!!!",
"!!!!  !!!!!!!!!!!!!!",
"!!!!    !!!!!!!!!!!!",
"!!!!      !!!!!!!!!!",
"!!!!        !!!!!!!!",
"!!!!          !!!!!!",
"!!!!            !!!!",
"!!!!            #!!!",
"!!!!          ##!!!!",
"!!!!        ##!!!!!!",
"!!!!      ##!!!!!!!!",
"!!!!    ##!!!!!!!!!!",
"!!!!  ##!!!!!!!!!!!!",
"!!!!!#!!!!!!!!!!!!!!",
"!!!!!!!!!!!!!!!!!!!!",
"!!!!!!!!!!!!!!!!!!!!",
"!!!!!!!!!!!!!!!!!!!!"
};
