/* XPM */
static const char *stop_bmp_1[] = {
"20 20 3 1 0 0",
"  c #000000",
"! c None",
"# c #FFFFFF",
"!!!!!!!!!!!!!!!!!!!!",
"!!!!!!!!!!!!!!!!!!!!",
"!!!!!!!!!!!!!!!!!!!!",
"!!!!!!!!!!!!!!!!!!!!",
"!!!!            !!!!",
"!!!!            #!!!",
"!!!!            #!!!",
"!!!!            #!!!",
"!!!!            #!!!",
"!!!!            #!!!",
"!!!!            #!!!",
"!!!!            #!!!",
"!!!!            #!!!",
"!!!!            #!!!",
"!!!!            #!!!",
"!!!!            #!!!",
"!!!!!############!!!",
"!!!!!!!!!!!!!!!!!!!!",
"!!!!!!!!!!!!!!!!!!!!",
"!!!!!!!!!!!!!!!!!!!!"
};
