/* XPM */
static const char *minimal_bmp_1[] = {
/* columns rows colors chars-per-pixel */
"20 20 2 1",
"$ c None",
"= c blue",
/* pixels */
"$$$$$$$$$$$$$$$$$$$$",
"$$$$===$$==$$$$$$$$$",
"$$$=$$$=$=$$$$$$$$$$",
"$$$=$$$$===$$====$$$",
"$$$=$$$$$=$$=$$$=$$$",
"$$$=$$$$$=$$=$$$=$$$",
"$$$=$$$=$=$$=$$$=$$$",
"$$$$===$$=$$$====$$$",
"$$$$$$$$$$$$=$$$=$$$",
"$$$$$$$$$$$$$===$$$$",
"$$$$$$$$$$$$$$$$$$$$",
"$$$$$$$$$$$$$$$$$$$$",
"=======$$$$$=$====$$",
"$$$$=$==$$$==$=$$$=$",
"$$$=$$==$$$==$=$$$=$",
"$$=$$$=$=$=$=$====$$",
"$=$$$$=$=$=$=$=$$=$$",
"=$$$$$=$=$=$=$=$$$=$",
"=======$$=$$=$=$$$=$",
"$$$$$$$$$$$$$$$$$$$$"
};
