/* XPM */
static const char *minimal_bmp_2[] = {
/* columns rows colors chars-per-pixel */
"20 20 7 1",
"  c black",
"X c #008000",
"$ c None",
"% c red",
"& c green",
"* c yellow",
"= c blue",
/* pixels */
"$$$$$$$$$$$$$$$$$$$$",
"$$$$$$$$$$$$$$$$$$$$",
"$$================$$",
"$$================$$",
"$$$$$$$$$$$$$$$$$$$$",
"$$$$$$$$$$$$$$$$$$$$",
"$$****************$$",
"$$****************$$",
"$$$$$$$$$$$$$$$$$$$$",
"$$$$$$$ $$ $$$$$$$$$",
"$$XXXXXX  XXXXXXXX$$",
"$$XXXXXX  XXXXXXXX$$",
"$$$$$$$ $$ $$$$$$$$$",
"$$$$$$$$$$$$$$$$$$$$",
"$$$$$$$$$$$ $$$$$$$$",
"$$%%%%%%%% &&&&&&&$$",
"$$%%%%%%% &&&&&&&&$$",
"$$$$$$$$ $$$$$$$$$$$",
"$$$$$$$$$$$$$$$$$$$$",
"$$$$$$$$$$$$$$$$$$$$"
};
